<svg width="177" height="160" viewBox="0 0 177 160" fill="none" xmlns="http://www.w3.org/2000/svg">
<g clip-path="url(#clip0_135_20)">
<path d="M144.208 14.6131C162.459 27.9978 166.437 53.666 153.093 71.945L98.456 146.795L23.725 91.9863C5.47533 78.6016 1.4975 52.9331 14.8403 34.6543C28.1831 16.3754 53.7943 12.4078 72.0441 25.7925L80.6864 32.1309L87.0051 23.4748C100.348 5.19598 125.959 1.22842 144.208 14.6131Z" fill="#F99192"/>
<path d="M59.1293 70.0649C58.5957 70.0974 58.184 69.9687 57.8941 69.6786C57.6178 69.375 57.4823 68.9899 57.4878 68.5233C57.4921 68.1633 57.5958 67.8489 57.7989 67.58C58.002 67.3112 58.3038 67.1612 58.704 67.1302L59.2645 67.084C59.7448 67.0521 60.0994 66.9349 60.3284 66.7324C60.5576 66.5166 60.675 66.1687 60.6807 65.6887L60.7776 57.4693C60.7849 56.856 60.9503 56.3943 61.2739 56.0841C61.5977 55.7606 62.0528 55.5956 62.6395 55.5892C63.2261 55.5827 63.6775 55.7377 63.9937 56.0542C64.3101 56.3573 64.4647 56.8155 64.4574 57.4288L64.3612 65.5882C64.3503 66.5082 64.1745 67.29 63.8336 67.9336C63.4929 68.5639 62.9872 69.056 62.3165 69.41C61.6592 69.7505 60.837 69.9528 59.8498 70.017L59.1293 70.0649ZM77.5405 69.9224C76.1139 69.9381 74.8642 69.6519 73.7913 69.0638C72.7186 68.4624 71.8887 67.6184 71.3017 66.5317C70.7279 65.4449 70.4497 64.1749 70.4668 62.7216C70.4797 61.6284 70.6581 60.6333 71.0019 59.7363C71.3591 58.8393 71.8548 58.0673 72.489 57.4204C73.1365 56.7735 73.9022 56.2785 74.786 55.9355C75.6701 55.5792 76.6454 55.3951 77.712 55.3834C79.1386 55.3677 80.3816 55.654 81.4412 56.2422C82.514 56.8303 83.344 57.6676 83.931 58.7543C84.5183 59.8276 84.8032 61.0976 84.7859 62.5641C84.773 63.6574 84.588 64.6526 84.2308 65.5496C83.887 66.4466 83.3912 67.2252 82.7435 67.8855C82.1093 68.5324 81.3502 69.034 80.4662 69.3903C79.5823 69.7333 78.6071 69.9106 77.5405 69.9224ZM77.5768 66.8426C78.2834 66.8348 78.8854 66.6616 79.3826 66.3228C79.8798 65.9841 80.2655 65.4999 80.5395 64.8704C80.8136 64.2408 80.9558 63.4861 80.9662 62.6061C80.9817 61.2862 80.7005 60.2629 80.1225 59.536C79.5446 58.8092 78.7289 58.4516 77.6757 58.4632C76.9824 58.4708 76.3805 58.6441 75.8699 58.9829C75.3728 59.3083 74.9872 59.7858 74.7132 60.4154C74.4393 61.0316 74.2971 61.7864 74.2866 62.6796C74.271 63.9995 74.5521 65.0296 75.1299 65.7697C75.7079 66.4966 76.5235 66.8542 77.5768 66.8426ZM92.6129 69.7166C92.0262 69.723 91.5748 69.568 91.2586 69.2516C90.9425 68.9218 90.7881 68.4569 90.7951 67.857L90.9214 57.1577C90.9286 56.5444 91.0941 56.076 91.4179 55.7525C91.7416 55.429 92.1968 55.2641 92.7834 55.2576C93.3834 55.251 93.8348 55.406 94.1377 55.7226C94.4539 56.0391 94.6084 56.5039 94.6011 57.1172L94.4749 67.8165C94.4678 68.4164 94.309 68.8848 93.9984 69.2214C93.688 69.5448 93.2261 69.7098 92.6129 69.7166ZM102.623 69.6065C102.063 69.6126 101.638 69.4707 101.348 69.1806C101.058 68.8905 100.917 68.4588 100.923 67.8855L101.052 56.9863C101.059 56.3997 101.211 55.9514 101.508 55.6415C101.805 55.3183 102.193 55.1541 102.673 55.1488C103.1 55.1441 103.432 55.2204 103.67 55.3778C103.909 55.5351 104.172 55.7989 104.461 56.1689L110.707 64.0187L110.147 64.0248L110.233 56.7853C110.239 56.2254 110.384 55.7972 110.668 55.5008C110.964 55.2042 111.393 55.0529 111.953 55.0467C112.513 55.0406 112.931 55.1826 113.207 55.4728C113.497 55.7629 113.639 56.188 113.632 56.7479L113.502 67.8271C113.496 68.3338 113.358 68.7419 113.087 69.0515C112.817 69.3477 112.455 69.4983 112.002 69.5033C111.549 69.5083 111.19 69.4323 110.925 69.2752C110.674 69.1047 110.404 68.841 110.115 68.4843L103.869 60.6146L104.429 60.6084L104.343 67.8479C104.336 68.4212 104.185 68.8561 103.888 69.1527C103.604 69.449 103.183 69.6003 102.623 69.6065ZM60.2685 97.067C59.7085 97.0732 59.2836 96.9312 58.9937 96.6411C58.7039 96.351 58.5623 95.9193 58.5691 95.346L58.6977 84.4468C58.7046 83.8602 58.8565 83.4119 59.1535 83.102C59.4506 82.7788 59.8391 82.6146 60.3191 82.6093C60.7457 82.6046 61.0781 82.681 61.3162 82.8383C61.5543 82.9957 61.8178 83.2594 62.1067 83.6294L68.3529 91.4792L67.7929 91.4853L67.8783 84.2458C67.8849 83.6859 68.0299 83.2577 68.3134 82.9613C68.6102 82.6648 69.0385 82.5134 69.5985 82.5072C70.1585 82.5011 70.5767 82.6431 70.8532 82.9334C71.1431 83.2234 71.2847 83.6485 71.2781 84.2084L71.1474 95.2877C71.1414 95.7943 71.0033 96.2024 70.733 96.512C70.4629 96.8082 70.1012 96.9588 69.6479 96.9638C69.1946 96.9688 68.8356 96.8928 68.5708 96.7357C68.3195 96.5652 68.0494 96.3015 67.7603 95.9448L61.5143 88.0751L62.0743 88.0689L61.9889 95.3084C61.9821 95.8817 61.8304 96.3166 61.5336 96.6132C61.2501 96.9096 60.8284 97.0608 60.2685 97.067ZM84.4028 96.8415C82.9762 96.8572 81.7265 96.571 80.6536 95.9829C79.5809 95.3815 78.751 94.5375 78.164 93.4508C77.5902 92.364 77.312 91.094 77.3291 89.6408C77.342 88.5475 77.5204 87.5524 77.8642 86.6555C78.2214 85.7584 78.7171 84.9864 79.3513 84.3396C79.9988 83.6926 80.7645 83.1976 81.6484 82.8546C82.5324 82.4983 83.5077 82.3143 84.5743 82.3025C86.0009 82.2868 87.2439 82.5731 88.3035 83.1613C89.3763 83.7494 90.2063 84.5868 90.7933 85.6734C91.3806 86.7468 91.6655 88.0167 91.6482 89.4833C91.6353 90.5765 91.4503 91.5717 91.0931 92.4688C90.7493 93.3657 90.2535 94.1443 89.6058 94.8047C88.9717 95.4515 88.2125 95.9531 87.3285 96.3094C86.4446 96.6524 85.4694 96.8298 84.4028 96.8415ZM84.4391 93.7617C85.1457 93.754 85.7477 93.5807 86.2449 93.242C86.7421 92.9032 87.1278 92.4191 87.4018 91.7895C87.6759 91.16 87.8181 90.4052 87.8285 89.5253C87.844 88.2054 87.5628 87.182 86.9848 86.4552C86.4069 85.7283 85.5912 85.3707 84.538 85.3823C83.8447 85.3899 83.2428 85.5632 82.7322 85.9021C82.2351 86.2275 81.8495 86.705 81.5755 87.3345C81.3016 87.9507 81.1594 88.7055 81.1489 89.5988C81.1333 90.9187 81.4144 91.9487 81.9922 92.6889C82.5702 93.4157 83.3858 93.7733 84.4391 93.7617ZM102.744 96.5998C102.251 96.6052 101.852 96.4963 101.548 96.273C101.244 96.0364 101.008 95.6724 100.841 95.181L97.0693 84.3646C96.8631 83.767 96.9024 83.26 97.1872 82.8436C97.4856 82.4138 98.0014 82.1948 98.7347 82.1868C99.228 82.1813 99.6132 82.2971 99.8904 82.534C100.168 82.7575 100.383 83.1151 100.538 83.6066L103.412 92.5132L102.472 92.5236L105.777 83.549C105.97 83.0536 106.207 82.6911 106.49 82.4614C106.773 82.2183 107.134 82.0944 107.574 82.0895C108.014 82.0847 108.366 82.2008 108.63 82.4378C108.894 82.6616 109.109 83.0258 109.277 83.5305L112.171 92.4169L111.371 92.4257L114.537 83.4526C114.703 82.9576 114.92 82.5953 115.189 82.3657C115.472 82.1226 115.86 81.9984 116.354 81.9929C116.967 81.9862 117.411 82.1946 117.686 82.6182C117.974 83.0282 118.002 83.5345 117.768 84.137L113.7 95.0595C113.521 95.5414 113.277 95.904 112.967 96.1474C112.671 96.3773 112.277 96.4949 111.783 96.5003C111.277 96.5059 110.871 96.3971 110.567 96.1738C110.277 95.937 110.048 95.5729 109.88 95.0816L107.154 87.1931L107.654 87.1876L104.681 95.1587C104.488 95.6408 104.244 96.0034 103.948 96.2466C103.652 96.4765 103.251 96.5942 102.744 96.5998Z" fill="white"/>
</g>
<defs>
<clipPath id="clip0_135_20">
<rect width="156.835" height="137.126" fill="white" transform="translate(0 24.5669) rotate(-9.01205)"/>
</clipPath>
</defs>
</svg>
