<svg width="40" height="40" viewBox="0 0 40 40" fill="none" xmlns="http://www.w3.org/2000/svg">
<g filter="url(#filter0_i_108_19)">
<path d="M27.0213 18.5433C25.0519 17.6641 22.8247 17.5832 20.7981 18.3172C18.7715 19.0513 17.0995 20.5445 16.126 22.4898L11.7763 31.1679C9.23345 36.0015 14.2893 41.6495 19.2824 39.5488C22.0134 38.475 23.7483 36.2324 26.7469 35.2078C29.8147 34.0351 32.5528 34.4654 35.4102 33.7071C40.4481 32.013 40.7184 24.5204 35.8064 22.4639L27.0213 18.5433Z" fill="white"/>
<path d="M35.0694 5.18984C32.3201 5.60923 31.3777 9.21741 31.7463 11.8973C32.9363 20.1754 40.8401 18.9729 39.9269 10.8559C39.501 7.38965 37.363 4.89719 35.0694 5.18984Z" fill="white"/>
<path d="M25.6519 13.3052C28.2077 12.3795 29.2474 8.68222 27.9735 5.06962C24.6508 -3.53518 15.8942 -0.363433 18.7125 8.4241C19.9864 12.0366 23.103 14.2285 25.6519 13.3052Z" fill="white"/>
<path d="M8.31444 20.384C6.9303 18.072 3.93818 15.8889 1.54928 17.3307C-2.78208 20.2755 2.86272 29.8302 7.52638 28.1717C10.1315 27.1282 10.2551 23.5859 8.31444 20.384Z" fill="white"/>
<path d="M13.9088 17.5584C16.4577 16.6351 17.4975 12.9379 16.2235 9.32533C12.9077 0.718033 4.15107 3.88982 6.96257 12.6797C8.23651 16.2923 11.353 18.4841 13.9088 17.5584Z" fill="white"/>
</g>
<defs>
<filter id="filter0_i_108_19" x="0" y="0" width="40" height="44" filterUnits="userSpaceOnUse" color-interpolation-filters="sRGB">
<feFlood flood-opacity="0" result="BackgroundImageFix"/>
<feBlend mode="normal" in="SourceGraphic" in2="BackgroundImageFix" result="shape"/>
<feColorMatrix in="SourceAlpha" type="matrix" values="0 0 0 0 0 0 0 0 0 0 0 0 0 0 0 0 0 0 127 0" result="hardAlpha"/>
<feOffset dy="4"/>
<feGaussianBlur stdDeviation="2"/>
<feComposite in2="hardAlpha" operator="arithmetic" k2="-1" k3="1"/>
<feColorMatrix type="matrix" values="0 0 0 0 0.9125 0 0 0 0 0.897292 0 0 0 0 0.897292 0 0 0 0.25 0"/>
<feBlend mode="normal" in2="shape" result="effect1_innerShadow_108_19"/>
</filter>
</defs>
</svg>
